[2026-03-03T15:59:00.653Z] Pipeline process started.
[2026-03-03T15:59:01.473Z] Downloading YouTube: https://youtube.com/shorts/rYqL8Js647w?si=GbJ3MtCyYp1A7c-f
[2026-03-03T15:59:08.255Z] YouTube download completed.
[2026-03-03T15:59:09.221Z] Extracting audio with FFmpeg...
[2026-03-03T15:59:10.400Z] Audio extraction successful.
[2026-03-03T15:59:10.404Z] Starting transcription...
[2026-03-03T15:59:12.940Z] Starting translation...
[2026-03-03T15:59:15.397Z] Generating segment 1/8: "Onlar deyirlər, bizə onun lazı..."
[2026-03-03T15:59:18.031Z] Segment 0 saved (20304 bytes).
[2026-03-03T15:59:18.037Z] Generating segment 2/8: "Azadlıq, azadlıq...."
[2026-03-03T15:59:20.942Z] Segment 1 saved (14400 bytes).
[2026-03-03T15:59:20.946Z] Generating segment 3/8: "O, diktator...."
[2026-03-03T15:59:23.350Z] Segment 2 saved (12816 bytes).
[2026-03-03T15:59:23.354Z] Generating segment 4/8: "O, diktator...."
[2026-03-03T15:59:25.525Z] Segment 3 saved (12816 bytes).
[2026-03-03T15:59:25.528Z] Generating segment 5/8: "Çoxlu insan deyir, bəlkə dikta..."
[2026-03-03T15:59:27.923Z] Segment 4 saved (22320 bytes).
[2026-03-03T15:59:27.925Z] Generating segment 6/8: "Mən diktatoru sevmirəm...."
[2026-03-03T15:59:30.222Z] Segment 5 saved (15696 bytes).
[2026-03-03T15:59:30.225Z] Generating segment 7/8: "Mən diktator deyiləm...."
[2026-03-03T15:59:32.639Z] Segment 6 saved (14976 bytes).
[2026-03-03T15:59:32.643Z] Generating segment 8/8: "Mən yaxşı zəka sahibi olan ada..."
[2026-03-03T15:59:35.242Z] Segment 7 saved (26352 bytes).
[2026-03-03T15:59:35.245Z] Running FFmpeg: C:\Users\fullm\Downloads\dubverse-saas\backend\node_modules\ffmpeg-static\ffmpeg.exe -i C:\Users\fullm\Downloads\dubverse-saas\tmp\uploads\7267048e-767f-4be8-b21f-c7cd1d8a7039\audio.mp3 -i C:\Users\fullm\Downloads\dubverse-saas\tmp\uploads\7267048e-767f-4be8-b21f-c7cd1d8a7039\segments\seg_0.mp3 -i C:\Users\fullm\Downloads\dubverse-saas\tmp\uploads\7267048e-767f-4be8-b21f-c7cd1d8a7039\segments\seg_1.mp3 -i C:\Users\fullm\Downloads\dubverse-saas\tmp\uploads\7267048e-767f-4be8-b21f-c7cd1d8a7039\segments\seg_2.mp3 -i C:\Users\fullm\Downloads\dubverse-saas\tmp\uploads\7267048e-767f-4be8-b21f-c7cd1d8a7039\segments\seg_3.mp3 -i C:\Users\fullm\Downloads\dubverse-saas\tmp\uploads\7267048e-767f-4be8-b21f-c7cd1d8a7039\segments\seg_4.mp3 -i C:\Users\fullm\Downloads\dubverse-saas\tmp\uploads\7267048e-767f-4be8-b21f-c7cd1d8a7039\segments\seg_5.mp3 -i C:\Users\fullm\Downloads\dubverse-saas\tmp\uploads\7267048e-767f-4be8-b21f-c7cd1d8a7039\segments\seg_6.mp3 -i C:\Users\fullm\Downloads\dubverse-saas\tmp\uploads\7267048e-767f-4be8-b21f-c7cd1d8a7039\segments\seg_7.mp3 -filter_complex [1:a]aformat=sample_rates=44100:channel_layouts=stereo,adelay=0|0[s0];[2:a]aformat=sample_rates=44100:channel_layouts=stereo,adelay=1340|1340[s1];[3:a]aformat=sample_rates=44100:channel_layouts=stereo,adelay=2140|2140[s2];[4:a]aformat=sample_rates=44100:channel_layouts=stereo,adelay=2960|2960[s3];[5:a]aformat=sample_rates=44100:channel_layouts=stereo,adelay=4160|4160[s4];[6:a]aformat=sample_rates=44100:channel_layouts=stereo,adelay=7020|7020[s5];[7:a]aformat=sample_rates=44100:channel_layouts=stereo,adelay=8360|8360[s6];[8:a]aformat=sample_rates=44100:channel_layouts=stereo,adelay=9880|9880[s7];[0:a]aformat=sample_rates=44100:channel_layouts=stereo,volume=0[bg];[bg][s0][s1][s2][s3][s4][s5][s6][s7]amix=inputs=9:duration=first:dropout_transition=999,volume=18[out] -map [out] -acodec libmp3lame -ar 44100 -b:a 192k -y C:\Users\fullm\Downloads\dubverse-saas\tmp\uploads\7267048e-767f-4be8-b21f-c7cd1d8a7039\dubbed_audio.mp3
[2026-03-03T15:59:35.700Z] FFmpeg Err: Input #0, mp3, from 'C:\Users\fullm\Downloads\dubverse-saas\tmp\uploads\7267048e-767f-4be8-b21f-c7cd1d8a7039\audio.mp3':
  Metadata:
    major_brand     : mp42
    minor_version   : 0
    compatible_brands: isommp42
    encoder         : Lavf60.16.100
  Duration: 00:00:13.79, start: 0.025057, bitrate: 128 kb/s

[2026-03-03T15:59:35.707Z] FFmpeg Err:   Stream #0:0: Audio: mp3, 44100 Hz, stereo, fltp, 128 kb/s
    Metadata:
      encoder         : Lavc60.31
[mp3 @ 000002180848d480] Estimating duration from bitrate, this may be inaccurate
Input #1, mp3, from 'C:\Users\fullm\Downloads\dubverse-saas\tmp\uploads\7267048e-767f-4be8-b21f-c7cd1d8a7039\segments\seg_0.mp3':
  Duration: 00:00:03.38, start: 0.000000, bitrate: 48 kb/s
  Stream #1:0: Audio: mp3, 24000 Hz, mono, fltp, 48 kb/s

[2026-03-03T15:59:35.718Z] FFmpeg Err: [mp3 @ 000002180848b080] Estimating duration from bitrate, this may be inaccurate
Input #2, mp3, from 'C:\Users\fullm\Downloads\dubverse-saas\tmp\uploads\7267048e-767f-4be8-b21f-c7cd1d8a7039\segments\seg_1.mp3':
  Duration: 00:00:02.40, start: 0.000000, bitrate: 48 kb/s
  Stream #2:0: Audio: mp3, 24000 Hz, mono, fltp, 48 kb/s
[mp3 @ 00000218084b9380] Estimating duration from bitrate, this may be inaccurate
Input #3, mp3, from 'C:\Users\fullm\Downloads\dubverse-saas\tmp\uploads\7267048e-767f-4be8-b21f-c7cd1d8a7039\segments\seg_2.mp3':
  Duration: 00:00:02.14, start: 0.000000, bitrate: 48 kb/s
  Stream #3:0: Audio: mp3, 24000 Hz, mono, fltp, 48 kb/s
[mp3 @ 000002180850e980] Estimating duration from bitrate, this may be inaccurate
Input #4, mp3, from 'C:\Users\fullm\Downloads\dubverse-saas\tmp\uploads\7267048e-767f-4be8-b21f-c7cd1d8a7039\segments\seg_3.mp3':
  Duration: 00:00:02.14, start: 0.000000, bitrate: 48 kb/s
  Stream #4:0: Audio: mp3, 24000 Hz, mono, fltp, 48 kb/s
[mp3 @ 0000021808526e80] Estimating duration from bitrate, this may be inaccurate
Input #5, mp3, from 'C:\Users\fullm\Downloads\dubverse-saas\tmp\uploads\7267048e-767f-4be8-b21f-c7cd1d8a7039\segments\seg_4.mp3':
  Duration: 00:00:03.72, start: 0.000000, bitrate: 48 kb/s
  Stream #5:0: Audio: mp3, 24000 Hz, mono, fltp, 48 kb/s

[2026-03-03T15:59:35.723Z] FFmpeg Err: [mp3 @ 0000021808543b40] Estimating duration from bitrate, this may be inaccurate
Input #6, mp3, from 'C:\Users\fullm\Downloads\dubverse-saas\tmp\uploads\7267048e-767f-4be8-b21f-c7cd1d8a7039\segments\seg_5.mp3':
  Duration: 00:00:02.62, start: 0.000000, bitrate: 48 kb/s
  Stream #6:0: Audio: mp3, 24000 Hz, mono, fltp, 48 kb/s

[2026-03-03T15:59:35.727Z] FFmpeg Err: [mp3 @ 000002180856a880] Estimating duration from bitrate, this may be inaccurate
Input #7, mp3, from 'C:\Users\fullm\Downloads\dubverse-saas\tmp\uploads\7267048e-767f-4be8-b21f-c7cd1d8a7039\segments\seg_6.mp3':
  Duration: 00:00:02.50, start: 0.000000, bitrate: 48 kb/s
  Stream #7:0: Audio: mp3, 24000 Hz, mono, fltp, 48 kb/s

[2026-03-03T15:59:35.730Z] FFmpeg Err: [mp3 @ 0000021808582d40] Estimating duration from bitrate, this may be inaccurate
Input #8, mp3, from 'C:\Users\fullm\Downloads\dubverse-saas\tmp\uploads\7267048e-767f-4be8-b21f-c7cd1d8a7039\segments\seg_7.mp3':
  Duration: 00:00:04.39, start: 0.000000, bitrate: 48 kb/s
  Stream #8:0: Audio: mp3, 24000 Hz, mono, fltp, 48 kb/s

[2026-03-03T15:59:35.735Z] FFmpeg Err: Stream mapping:
  Stream #0:0 (mp3float) -> aformat:default
  Stream #1:0 (mp3float) -> aformat:default
  Stream #2:0 (mp3float) -> aformat:default
  Stream #3:0 (mp3float) -> aformat:default
  Stream #4:0 (mp3float) -> aformat:default
  Stream #5:0 (mp3float) -> aformat:default
  Stream #6:0 (mp3float) -> aformat:default
  Stream #7:0 (mp3float) -> aformat:default
  Stream #8:0 (mp3float) -> aformat:default
  volume:default -> Stream #0:0 (libmp3lame)

[2026-03-03T15:59:35.752Z] FFmpeg Err: Output #0, mp3, to 'C:\Users\fullm\Downloads\dubverse-saas\tmp\uploads\7267048e-767f-4be8-b21f-c7cd1d8a7039\dubbed_audio.mp3':
  Metadata:
    major_brand     : mp42
    minor_version   : 0
    compatible_brands: isommp42
    TSSE            : Lavf60.16.100
  Stream #0:0: Audio: mp3, 44100 Hz, stereo, fltp, 192 kb/s
    Metadata:
      encoder         : Lavc60.31.102 libmp3lame

[2026-03-03T15:59:35.757Z] FFmpeg Err: size=       0kB time=N/A bitrate=N/A speed=N/A    
[2026-03-03T15:59:36.146Z] FFmpeg Err: [out#0/mp3 @ 00000218085aa080] video:0kB audio:323kB subtitle:0kB other streams:0kB global headers:0kB muxing overhead: 0.230800%
size=     324kB time=00:00:13.74 bitrate= 193.2kbits/s speed=33.1x    

[2026-03-03T15:59:36.654Z] Starting final video/audio muxing...
[2026-03-03T15:59:36.658Z] Running FFmpeg: C:\Users\fullm\Downloads\dubverse-saas\backend\node_modules\ffmpeg-static\ffmpeg.exe -i C:\Users\fullm\Downloads\dubverse-saas\tmp\uploads\7267048e-767f-4be8-b21f-c7cd1d8a7039\video.mp4 -i C:\Users\fullm\Downloads\dubverse-saas\tmp\uploads\7267048e-767f-4be8-b21f-c7cd1d8a7039\dubbed_audio.mp3 -map 0:v:0 -map 1:a:0 -c:v copy -c:a aac -b:a 192k -shortest -y C:\Users\fullm\Downloads\dubverse-saas\tmp\uploads\7267048e-767f-4be8-b21f-c7cd1d8a7039\final_dubbed.mp4
[2026-03-03T15:59:36.759Z] FFmpeg Err: Input #0, mov,mp4,m4a,3gp,3g2,mj2, from 'C:\Users\fullm\Downloads\dubverse-saas\tmp\uploads\7267048e-767f-4be8-b21f-c7cd1d8a7039\video.mp4':
  Metadata:
    major_brand     : mp42
    minor_version   : 0
    compatible_brands: isommp42
    encoder         : Google
  Duration: 00:00:13.76, start: 0.000000, bitrate: 592 kb/s
  Stream #0:0[0x1](und): Video: h264 (Constrained Baseline) (avc1 / 0x31637661), yuv420p(tv, bt709, progressive), 360x640 [SAR 1:1 DAR 9:16], 398 kb/s, 29.97 fps, 29.97 tbr, 30k tbn (default)
    Metadata:
      handler_name    : ISO Media file produced by Google Inc.
      vendor_id       : [0][0][0][0]

[2026-03-03T15:59:36.761Z] FFmpeg Err:   Stream #0:1[0x2](eng): Audio: aac (LC) (mp4a / 0x6134706D), 48000 Hz, stereo, fltp, 192 kb/s (default)
    Metadata:
      handler_name    : ISO Media file produced by Google Inc.
      vendor_id       : [0][0][0][0]
Input #1, mp3, from 'C:\Users\fullm\Downloads\dubverse-saas\tmp\uploads\7267048e-767f-4be8-b21f-c7cd1d8a7039\dubbed_audio.mp3':
  Metadata:
    major_brand     : mp42
    minor_version   : 0
    compatible_brands: isommp42
    encoder         : Lavf60.16.100
  Duration: 00:00:13.79, start: 0.025057, bitrate: 192 kb/s
  Stream #1:0: Audio: mp3, 44100 Hz, stereo, fltp, 192 kb/s
    Metadata:
      encoder         : Lavc60.31

[2026-03-03T15:59:36.766Z] FFmpeg Err: Stream mapping:
  Stream #0:0 -> #0:0 (copy)
  Stream #1:0 -> #0:1 (mp3 (mp3float) -> aac (native))

[2026-03-03T15:59:36.773Z] FFmpeg Err: Output #0, mp4, to 'C:\Users\fullm\Downloads\dubverse-saas\tmp\uploads\7267048e-767f-4be8-b21f-c7cd1d8a7039\final_dubbed.mp4':
  Metadata:
    major_brand     : mp42
    minor_version   : 0
    compatible_brands: isommp42
    encoder         : Lavf60.16.100

[2026-03-03T15:59:36.776Z] FFmpeg Err:   Stream #0:0(und): Video: h264 (Constrained Baseline) (avc1 / 0x31637661), yuv420p(tv, bt709, progressive), 360x640 [SAR 1:1 DAR 9:16], q=2-31, 398 kb/s, 29.97 fps, 29.97 tbr, 30k tbn (default)
    Metadata:
      handler_name    : ISO Media file produced by Google Inc.
      vendor_id       : [0][0][0][0]
  Stream #0:1: Audio: aac (LC) (mp4a / 0x6134706D), 44100 Hz, stereo, fltp, 192 kb/s
    Metadata:
      encoder         : Lavc60.31.102 aac
size=       0kB time=N/A bitrate=N/A speed=N/A    
[2026-03-03T15:59:37.268Z] FFmpeg Err: size=     256kB time=00:00:05.63 bitrate= 372.0kbits/s speed=11.2x    
[2026-03-03T15:59:37.769Z] FFmpeg Err: size=     512kB time=00:00:10.94 bitrate= 383.3kbits/s speed=10.9x    
[2026-03-03T15:59:38.024Z] FFmpeg Err: [out#0/mp4 @ 0000022aa1b7fdc0] video:667kB audio:318kB subtitle:0kB other streams:0kB global headers:0kB muxing overhead: 1.297586%
size=     997kB time=00:00:13.74 bitrate= 594.4kbits/s speed=10.9x    

[2026-03-03T15:59:38.027Z] FFmpeg Err: [aac @ 0000022aa1b7ea00] Qavg: 6734.291

[2026-03-03T15:59:38.456Z] Pipeline finished successfully!
